<?xml version="1.0" encoding="UTF-8" standalone="no"?>
<svg
   xmlns:dc="http://purl.org/dc/elements/1.1/"
   xmlns:cc="http://creativecommons.org/ns#"
   xmlns:rdf="http://www.w3.org/1999/02/22-rdf-syntax-ns#"
   xmlns:svg="http://www.w3.org/2000/svg"
   xmlns="http://www.w3.org/2000/svg"
   xmlns:sodipodi="http://sodipodi.sourceforge.net/DTD/sodipodi-0.dtd"
   xmlns:inkscape="http://www.inkscape.org/namespaces/inkscape"
   width="24.699385mm"
   height="24.699381mm"
   viewBox="0 0 24.699384 24.699381"
   version="1.1"
   id="svg1087"
   inkscape:version="1.0.1 (3bc2e813f5, 2020-09-07)">
  <defs
     id="defs1081" />
  <sodipodi:namedview
     id="base"
     pagecolor="#ffffff"
     bordercolor="#666666"
     borderopacity="1.0"
     inkscape:pageopacity="0.0"
     inkscape:pageshadow="2"
     inkscape:zoom="0.35"
     inkscape:cx="46.675995"
     inkscape:cy="46.675977"
     inkscape:document-units="mm"
     inkscape:current-layer="layer1"
     inkscape:document-rotation="0"
     showgrid="false"
     inkscape:window-width="768"
     inkscape:window-height="657"
     inkscape:window-x="683"
     inkscape:window-y="27"
     inkscape:window-maximized="0" />
  <metadata
     id="metadata1084">
    <rdf:RDF>
      <cc:Work
         rdf:about="">
        <dc:format>image/svg+xml</dc:format>
        <dc:type
           rdf:resource="http://purl.org/dc/dcmitype/StillImage" />
        <dc:title></dc:title>
      </cc:Work>
    </rdf:RDF>
  </metadata>
  <g
     inkscape:label="Layer 1"
     inkscape:groupmode="layer"
     id="layer1"
     transform="translate(-93.483645,-135.81698)">
    <path
       d="m 105.83334,137.47856 c 5.90268,0 10.68811,4.78508 10.68811,10.68811 0,5.90268 -4.78543,10.68811 -10.68811,10.68811 -5.902685,0 -10.688115,-4.78543 -10.688115,-10.68811 0.006,-5.90021 4.7879,-10.68176 10.688115,-10.68811 m 0,23.0378 c 6.82061,0 12.34969,-5.52908 12.34969,-12.34969 0,-6.8206 -5.52908,-12.34969 -12.34969,-12.34969 -6.820605,0 -12.349695,5.52909 -12.349695,12.34969 0.007,6.81743 5.53226,12.34228 12.349695,12.34969"
       style="opacity:0.300003;fill:#4d4d4d;fill-opacity:1;fill-rule:nonzero;stroke:none;stroke-width:0.352777"
       id="path1002"
       inkscape:export-xdpi="96"
       inkscape:export-ydpi="96" />
    <path
       d="m 106.7397,148.78244 -3.34292,3.04729 1.52012,-4.26014 3.34292,-3.0473 z m -3.09845,-2.30435 c -0.0974,0.09 -0.1718,0.20179 -0.21696,0.32597 l -2.71321,7.59037 c -0.15558,0.43144 0.0681,0.90769 0.49988,1.06362 0.29069,0.10478 0.61595,0.0395 0.8435,-0.16969 l 5.95453,-5.43313 c 0.097,-0.0899 0.17145,-0.20179 0.21696,-0.32596 l 2.71286,-7.59037 c 0.15593,-0.4318 -0.0681,-0.90805 -0.49953,-1.06362 -0.29104,-0.10478 -0.61595,-0.0395 -0.84385,0.16933 z"
       style="opacity:0.300003;fill:#4d4d4d;fill-opacity:1;fill-rule:nonzero;stroke:none;stroke-width:0.352777"
       id="path1006"
       inkscape:export-xdpi="96"
       inkscape:export-ydpi="96" />
  </g>
</svg>
