<svg id="Capa_1" data-name="Capa 1" xmlns="http://www.w3.org/2000/svg" viewBox="0 0 78 48"><defs><style>.cls-1{fill:#245281;}.cls-2{fill:#ffb71b;}</style></defs><path class="cls-1" d="M14.93,27.72a3.16,3.16,0,0,0-3.17-3.14H7.94v10h4.15a3.14,3.14,0,0,0,2.36-5.25,3.08,3.08,0,0,0,.48-1.65m-4.43-1h1.26a1,1,0,1,1,0,1.92H10.5Zm1.59,5.67H10.5V30.51h1.59a1,1,0,1,1,0,1.92"/><path class="cls-1" d="M20.73,24.39a5.25,5.25,0,1,0,5.07,5.25,5.17,5.17,0,0,0-5.07-5.25m0,7.77a2.53,2.53,0,1,1,2.34-2.52,2.44,2.44,0,0,1-2.34,2.52"/><path class="cls-1" d="M32,31.18h1.19v.55a2.82,2.82,0,0,1-1.5.43,2.52,2.52,0,1,1,0-5,2.78,2.78,0,0,1,1.88.71l.26.25,1.84-2-.26-.24a5.51,5.51,0,0,0-3.72-1.43,5.25,5.25,0,1,0,0,10.5,5.83,5.83,0,0,0,1.5-.2v0H36V28.46H32Z"/><polygon class="cls-1" points="49.96 27.52 49.96 34.71 53.19 34.71 53.19 27.52 56.25 27.52 56.25 24.44 46.89 24.44 46.89 27.52 49.96 27.52"/><polygon class="cls-1" points="70.57 39.01 64.38 22.55 58.82 22.55 54.27 34.69 57.64 34.69 61.6 24.7 67.2 39.01 70.57 39.01"/><path class="cls-1" d="M46.11,27.16h0a5.06,5.06,0,0,0-4.46-2.76,5.25,5.25,0,1,0,5.07,5.25,5.44,5.44,0,0,0-.6-2.48m-4.47,5A2.53,2.53,0,1,1,44,29.64a2.45,2.45,0,0,1-2.34,2.52"/><polygon class="cls-2" points="66 17 69.03 15.75 65 14.3 62.41 7.36 59.73 12.47 54.25 11.35 58.11 15.54 56.23 20.62 63.03 18.17 67.99 22.35 66 17"/><polygon class="cls-2" points="54.68 17.27 55.93 16.47 54.44 16.16 54.01 14.67 53.42 15.94 51.16 15.46 52.93 17.28 52.39 18.75 53.97 17.73 55.2 18.73 54.68 17.27"/><polygon class="cls-2" points="68.12 9.73 69.42 8.89 67.86 8.56 67.42 7.01 66.66 8.31 64.44 7.83 66.28 9.74 65.72 11.28 67.37 10.21 68.65 11.25 68.12 9.73"/></svg>