<?xml version="1.0" standalone="no"?>
<!DOCTYPE svg PUBLIC "-//W3C//DTD SVG 20010904//EN"
 "http://www.w3.org/TR/2001/REC-SVG-20010904/DTD/svg10.dtd">
<svg version="1.0" xmlns="http://www.w3.org/2000/svg"
 width="140.000000pt" height="75.000000pt" viewBox="0 0 140.000000 75.000000"
 preserveAspectRatio="xMidYMid meet">

<g transform="translate(0.000000,75.000000) scale(0.100000,-0.100000)"
fill="#000000" stroke="none">
<path d="M1127 679 c-28 -50 -29 -51 -65 -44 -20 3 -46 9 -57 12 -15 4 -10 -5
18 -34 41 -43 44 -55 21 -108 -8 -20 -14 -39 -12 -41 2 -2 34 8 71 21 l67 25
32 -28 c73 -61 71 -61 49 -3 l-20 52 25 11 c32 15 30 25 -5 33 -37 8 -42 15
-71 93 -12 34 -23 62 -24 62 0 0 -14 -23 -29 -51z"/>
<path d="M1230 721 c-17 -5 -21 -9 -12 -15 6 -4 12 -15 12 -24 0 -23 47 -23
53 0 7 24 -23 46 -53 39z"/>
<path d="M951 561 c-21 -6 -22 -8 -8 -19 9 -8 13 -21 10 -30 -5 -13 -3 -14 7
-5 7 6 18 9 25 7 19 -8 27 25 11 42 -8 8 -16 14 -18 13 -2 -1 -14 -4 -27 -8z"/>
<path d="M1067 378 c-8 -24 -29 -80 -46 -126 l-31 -83 36 3 c36 3 37 4 73 95
20 50 39 94 42 97 3 3 29 -56 58 -132 30 -75 57 -141 61 -145 4 -5 21 -7 38
-5 l30 3 -63 165 -62 165 -60 3 -61 3 -15 -43z"/>
<path d="M30 275 l0 -105 49 0 c66 0 105 30 97 74 -4 17 -6 45 -6 63 1 49 -29
73 -90 73 l-50 0 0 -105z m100 40 c0 -9 -9 -15 -25 -15 -16 0 -25 6 -25 15 0
9 9 15 25 15 16 0 25 -6 25 -15z m-2 -77 c3 -13 -3 -18 -22 -18 -20 0 -26 5
-26 21 0 15 5 20 22 17 13 -2 24 -11 26 -20z"/>
<path d="M237 369 c-23 -13 -47 -62 -47 -94 0 -34 25 -82 49 -95 11 -5 37 -10
58 -10 95 0 136 122 62 184 -32 28 -88 34 -122 15z m85 -56 c24 -21 23 -55 -2
-78 -17 -15 -24 -16 -45 -7 -44 20 -29 100 19 102 5 0 18 -7 28 -17z"/>
<path d="M444 346 c-47 -47 -47 -95 0 -142 32 -32 38 -34 100 -34 l66 0 0 65
0 65 -40 0 c-38 0 -40 -2 -40 -30 0 -16 5 -30 11 -30 5 0 7 -4 4 -10 -18 -29
-75 7 -75 48 0 32 44 58 74 44 20 -9 27 -7 42 10 18 19 18 20 -1 34 -10 8 -39
14 -63 14 -37 0 -50 -6 -78 -34z"/>
<path d="M658 351 c-28 -25 -33 -36 -33 -76 0 -40 5 -51 33 -76 72 -64 172
-19 172 78 0 94 -101 138 -172 74z m102 -41 c11 -11 20 -27 20 -35 0 -16 -34
-55 -48 -55 -19 0 -52 33 -52 52 0 25 27 58 47 58 7 0 22 -9 33 -20z"/>
<path d="M840 350 c0 -27 3 -30 30 -30 l30 0 0 -75 0 -75 35 0 35 0 0 75 0 75
30 0 c27 0 30 3 30 30 l0 30 -95 0 -95 0 0 -30z"/>
</g>
</svg>
