<svg xmlns="http://www.w3.org/2000/svg" viewBox="0 0 274.37 139.13"><defs><style>.cls-1{fill:#e3182f;}.cls-2{fill:#ffb71b;}</style></defs><g id="Capa_2" data-name="Capa 2"><g id="Capa_1-2" data-name="Capa 1"><path class="cls-1" d="M18.17,110.31h-7v-8.42h7a4.21,4.21,0,1,1,0,8.42m-7-24.83H16.7a4.2,4.2,0,1,1,0,8.4H11.18Zm19.41,4.2A13.86,13.86,0,0,0,16.7,75.9H0v44H18.17a13.75,13.75,0,0,0,10.33-23,13.45,13.45,0,0,0,2.09-7.23"/><path class="cls-1" d="M56,109.14c-5.66,0-10.26-5-10.26-11.06S50.36,87,56,87s10.26,5,10.26,11S61.67,109.14,56,109.14m0-34c-12.25,0-22.22,10.33-22.22,23s10,23,22.22,23,22.21-10.3,22.21-23-10-23-22.21-23"/><path class="cls-1" d="M105.56,104.85h5.21v2.41a12.33,12.33,0,0,1-6.55,1.88c-6.49,0-11.77-5-11.77-11.06s5.28-11,11.77-11a12.06,12.06,0,0,1,8.19,3.14l1.17,1.06,8.06-8.82-1.15-1.06a24,24,0,0,0-16.27-6.27c-13.07,0-23.72,10.33-23.72,23s10.65,23,23.72,23a24.46,24.46,0,0,0,6.55-.89v.09h12V92.92H105.56Z"/><polygon class="cls-1" points="184.05 88.82 184.05 120.29 198.23 120.29 198.23 88.82 211.6 88.82 211.6 75.3 170.62 75.3 170.62 88.82 184.05 88.82"/><polygon class="cls-1" points="274.37 139.13 247.25 67.01 222.9 67.01 202.97 120.2 217.73 120.2 235.04 76.44 259.62 139.13 274.37 139.13"/><path class="cls-1" d="M147.6,109.14c-5.66,0-10.26-5-10.26-11.06s4.6-11,10.26-11,10.26,5,10.26,11-4.61,11.06-10.26,11.06m19.58-21.9,0,0a22.16,22.16,0,0,0-19.56-12.1c-12.25,0-22.21,10.33-22.21,23s10,23,22.21,23,22.21-10.3,22.21-23a23.49,23.49,0,0,0-2.63-10.84"/><polygon class="cls-2" points="253.45 43.63 266.75 38.19 249.05 31.86 237.72 1.53 225.97 23.86 201.97 18.93 218.91 37.27 210.65 59.46 240.44 48.76 262.19 67.01 253.45 43.63"/><polygon class="cls-2" points="203.88 44.83 209.33 41.33 202.81 39.94 200.93 33.44 198.33 38.99 188.46 36.89 196.18 44.85 193.81 51.29 200.75 46.83 206.12 51.17 203.88 44.83"/><polygon class="cls-2" points="262.73 11.89 268.42 8.23 261.61 6.78 259.65 0 256.36 5.66 246.63 3.6 254.69 11.91 252.22 18.63 259.47 13.97 265.07 18.51 262.73 11.89"/></g></g></svg>